<svg width="202" height="40" fill="none" xmlns="http://www.w3.org/2000/svg"><path fill-rule="evenodd" clip-rule="evenodd" d="M25.556 11.685A10 10 0 0020 10V0A20 20 0 110 20h10a10 10 0 1015.556-8.315z" fill="#7E40E6"/><path fill-rule="evenodd" clip-rule="evenodd" d="M10 0A10 10 0 010 10v10A20 20 0 0020 0H10z" fill="#7E40E6"/><path d="M64.33 28l-.924-2.772h-6.138L56.344 28h-3.278l5.39-15.4h3.762L67.63 28h-3.3zm-6.094-5.61h4.224l-2.112-6.292-2.112 6.292zm25.96-9.79V28H81.18v-9.988l-4.334 7.15h-.352l-4.334-7.128V28h-3.036V12.6h3.124l4.422 7.282 4.4-7.282h3.124zm10.173 15.708c-2.318 0-4.232-.77-5.742-2.31-1.51-1.54-2.266-3.44-2.266-5.698 0-2.273.755-4.173 2.266-5.698 1.51-1.54 3.424-2.31 5.742-2.31 1.393 0 2.676.33 3.85.99 1.188.645 2.112 1.525 2.772 2.64l-2.618 1.518a3.994 3.994 0 00-1.628-1.606c-.704-.396-1.496-.594-2.376-.594-1.496 0-2.706.47-3.63 1.408-.91.939-1.364 2.156-1.364 3.652 0 1.481.454 2.691 1.364 3.63.924.939 2.134 1.408 3.63 1.408.88 0 1.672-.19 2.376-.572.718-.396 1.261-.931 1.628-1.606l2.618 1.518c-.66 1.115-1.577 2.002-2.75 2.662-1.174.645-2.464.968-3.872.968zm11.365-9.416c.264-.704.696-1.232 1.298-1.584a4.05 4.05 0 012.046-.528v3.168c-.866-.103-1.643.073-2.332.528-.675.455-1.012 1.21-1.012 2.266V28h-2.838V17h2.838v1.892zM118.146 17h3.036l-4.004 11c-.572 1.584-1.335 2.728-2.288 3.432-.939.719-2.112 1.041-3.52.968v-2.64c.762.015 1.364-.147 1.804-.484.454-.337.814-.88 1.078-1.628L109.742 17h3.102l2.86 7.392L118.146 17zm10.788-.308c1.482 0 2.743.565 3.784 1.694 1.056 1.115 1.584 2.486 1.584 4.114 0 1.628-.528 3.007-1.584 4.136-1.041 1.115-2.302 1.672-3.784 1.672-1.54 0-2.728-.535-3.564-1.606V32.4h-2.838V17h2.838v1.298c.836-1.07 2.024-1.606 3.564-1.606zm-2.706 8.052c.572.572 1.298.858 2.178.858.88 0 1.606-.286 2.178-.858.587-.587.88-1.335.88-2.244 0-.91-.293-1.65-.88-2.222-.572-.587-1.298-.88-2.178-.88-.88 0-1.606.293-2.178.88-.572.572-.858 1.313-.858 2.222 0 .91.286 1.657.858 2.244zm16.132-5.016h-2.486v4.576c0 .381.095.66.286.836.19.176.469.279.836.308.366.015.821.007 1.364-.022V28c-1.951.22-3.33.037-4.136-.55-.792-.587-1.188-1.635-1.188-3.146v-4.576h-1.914V17h1.914v-2.222l2.838-.858V17h2.486v2.728zm11.029 6.908c-1.13 1.115-2.508 1.672-4.136 1.672-1.628 0-3.007-.557-4.136-1.672-1.115-1.13-1.672-2.508-1.672-4.136 0-1.628.557-3 1.672-4.114 1.129-1.13 2.508-1.694 4.136-1.694 1.628 0 3.006.565 4.136 1.694 1.129 1.115 1.694 2.486 1.694 4.114 0 1.628-.565 3.007-1.694 4.136zm-6.27-1.958c.572.572 1.283.858 2.134.858.85 0 1.562-.286 2.134-.858.572-.572.858-1.298.858-2.178 0-.88-.286-1.606-.858-2.178-.572-.572-1.284-.858-2.134-.858-.851 0-1.562.286-2.134.858-.558.572-.836 1.298-.836 2.178 0 .88.278 1.606.836 2.178zm12.342-4.554c0 .293.191.535.572.726.396.176.873.337 1.43.484.557.132 1.115.308 1.672.528a3.097 3.097 0 011.408 1.056c.396.499.594 1.122.594 1.87 0 1.13-.425 2.002-1.276 2.618-.836.601-1.885.902-3.146.902-2.259 0-3.799-.873-4.62-2.618l2.464-1.386c.323.953 1.041 1.43 2.156 1.43 1.012 0 1.518-.315 1.518-.946 0-.293-.198-.528-.594-.704a7.37 7.37 0 00-1.408-.506 14.843 14.843 0 01-1.672-.55 3.558 3.558 0 01-1.43-1.034c-.381-.484-.572-1.085-.572-1.804 0-1.085.396-1.936 1.188-2.552.807-.63 1.804-.946 2.992-.946.895 0 1.709.205 2.442.616a4.346 4.346 0 011.738 1.716l-2.42 1.32c-.352-.748-.939-1.122-1.76-1.122-.367 0-.675.08-.924.242a.76.76 0 00-.352.66z" fill="#fff"/></svg>